<?xml version="1.0" encoding="UTF-8"?>
<svg xmlns="http://www.w3.org/2000/svg" viewBox="0 0 1024 1024" role="img" aria-label="Passage">
  <defs>
    <radialGradient id="bgGrad" cx="50%" cy="50%" r="75%">
      <stop offset="0%" stop-color="#214b37"></stop>
      <stop offset="100%" stop-color="#102d23"></stop>
    </radialGradient>
    <radialGradient id="bigGrad" cx="32%" cy="28%" r="85%">
      <stop offset="0%" stop-color="#f6f3ee"></stop>
      <stop offset="100%" stop-color="#e8ddca"></stop>
    </radialGradient>
    <radialGradient id="smallGrad" cx="32%" cy="28%" r="85%">
      <stop offset="0%" stop-color="#f3c089"></stop>
      <stop offset="100%" stop-color="#b8783a"></stop>
    </radialGradient>
    <clipPath id="sq"><path d="M 512 0 C 850 0 1024 174 1024 512 C 1024 850 850 1024 512 1024 C 174 1024 0 850 0 512 C 0 174 174 0 512 0 Z"></path></clipPath>
  </defs>
  <path d="M 512 0 C 850 0 1024 174 1024 512 C 1024 850 850 1024 512 1024 C 174 1024 0 850 0 512 C 0 174 174 0 512 0 Z" fill="url(#bgGrad)"></path>
  <g clip-path="url(#sq)">
    <circle cx="430" cy="540" r="270" fill="url(#bigGrad)"></circle>
    <circle cx="650" cy="440" r="180" fill="url(#smallGrad)"></circle>
    <ellipse cx="600" cy="395" rx="40" ry="18" fill="#fff3d8" opacity="0.4"></ellipse>
  </g>
</svg>
