<?xml version="1.0" encoding="UTF-8"?>
<svg xmlns="http://www.w3.org/2000/svg" viewBox="0 0 256 256" role="img" aria-label="Passage">
  <rect width="256" height="256" fill="#f6f3ee"></rect>
  <g transform="translate(128 113.45454545454545) scale(2.9091)">
    <path d="M -28 38 L -28 0 A 28 28 0 0 1 28 0 L 28 38" fill="none" stroke="#5b7a63" stroke-width="0.756" stroke-linecap="round" stroke-linejoin="round"></path>
    <ellipse cx="0" cy="6" rx="9" ry="13" fill="#b8783a" opacity="0.14"></ellipse>
    <line x1="0" y1="24" x2="0" y2="18" stroke="#5b7a63" stroke-width="0.309" stroke-linecap="round" opacity="0.7"></line>
    <g transform="translate(0 18)">
      <path d="M 0 0 C -7.65 -1, -9 -6, -7.02 -10 C -4.95 -14.4, -1.62 -18, 0 -20 C 1.62 -18, 4.95 -14.4, 7.02 -10 C 9 -6, 7.65 -1, 0 0 Z" fill="#b8783a"></path>
      <path d="M 0 -1.6 C -3.978 -2, -4.68 -6, -3.65 -9 C -2.34 -12.4, -0.749 -13.744, 0 -14.8 C 0.749 -13.744, 2.34 -12.4, 3.65 -9 C 4.68 -6, 3.978 -2, 0 -1.6 Z" fill="#fde7c0" opacity="0.75"></path>
    </g>
  </g>
</svg>